<svg width="435" height="329" viewBox="0 0 435 329" fill="none" xmlns="http://www.w3.org/2000/svg">
<path d="M7.40767 203.016V140.1H27.0206V148.005H17.6491V195.086H27.0206V203.016H7.40767ZM54.9174 146.091V197H44.1539V156.308H43.8556L32.1973 163.616V154.07L44.8002 146.091H54.9174ZM75.8913 190.04L75.6179 192.774C75.4025 194.962 74.9882 197.141 74.375 199.312C73.7784 201.499 73.1487 203.48 72.4858 205.253C71.8395 207.026 71.3175 208.418 70.9197 209.429H64.0589C64.3075 208.451 64.6473 207.084 65.0781 205.327C65.509 203.587 65.915 201.632 66.2962 199.461C66.6773 197.29 66.9176 195.078 67.017 192.824L67.1413 190.04H75.8913ZM99.2827 197V189.244L117.404 172.465C118.945 170.974 120.238 169.631 121.282 168.438C122.343 167.245 123.146 166.077 123.693 164.933C124.24 163.773 124.513 162.522 124.513 161.18C124.513 159.688 124.174 158.404 123.494 157.327C122.815 156.233 121.887 155.396 120.71 154.816C119.534 154.219 118.2 153.921 116.708 153.921C115.15 153.921 113.791 154.236 112.631 154.866C111.471 155.496 110.576 156.399 109.947 157.575C109.317 158.752 109.002 160.152 109.002 161.776H98.7855C98.7855 158.445 99.5395 155.554 101.048 153.101C102.556 150.648 104.669 148.751 107.386 147.408C110.104 146.066 113.236 145.395 116.783 145.395C120.429 145.395 123.602 146.041 126.303 147.334C129.021 148.61 131.134 150.383 132.642 152.653C134.15 154.924 134.904 157.526 134.904 160.459C134.904 162.381 134.523 164.279 133.761 166.151C133.015 168.024 131.681 170.104 129.759 172.391C127.836 174.661 125.127 177.387 121.63 180.569L114.197 187.852V188.2H135.575V197H99.2827ZM154.983 190.04L154.71 192.774C154.494 194.962 154.08 197.141 153.467 199.312C152.87 201.499 152.24 203.48 151.578 205.253C150.931 207.026 150.409 208.418 150.012 209.429H143.151C143.399 208.451 143.739 207.084 144.17 205.327C144.601 203.587 145.007 201.632 145.388 199.461C145.769 197.29 146.009 195.078 146.109 192.824L146.233 190.04H154.983ZM197.192 197.696C193.48 197.696 190.174 197.058 187.274 195.782C184.39 194.489 182.111 192.716 180.438 190.462C178.78 188.192 177.927 185.574 177.877 182.607H188.715C188.782 183.85 189.188 184.944 189.933 185.888C190.696 186.817 191.707 187.537 192.966 188.051C194.226 188.565 195.642 188.822 197.217 188.822C198.857 188.822 200.307 188.532 201.567 187.952C202.826 187.372 203.812 186.568 204.525 185.54C205.238 184.513 205.594 183.328 205.594 181.986C205.594 180.627 205.213 179.425 204.45 178.381C203.705 177.321 202.628 176.492 201.219 175.896C199.827 175.299 198.17 175.001 196.247 175.001H191.499V167.096H196.247C197.871 167.096 199.305 166.814 200.548 166.251C201.807 165.687 202.785 164.908 203.481 163.914C204.177 162.903 204.525 161.727 204.525 160.384C204.525 159.108 204.218 157.99 203.605 157.028C203.009 156.051 202.164 155.288 201.07 154.741C199.993 154.195 198.733 153.921 197.291 153.921C195.833 153.921 194.499 154.186 193.289 154.717C192.079 155.23 191.11 155.968 190.381 156.929C189.652 157.89 189.262 159.017 189.213 160.31H178.896C178.946 157.376 179.783 154.791 181.407 152.554C183.031 150.317 185.219 148.568 187.97 147.309C190.737 146.033 193.861 145.395 197.341 145.395C200.854 145.395 203.928 146.033 206.563 147.309C209.198 148.585 211.245 150.308 212.703 152.479C214.178 154.634 214.907 157.053 214.891 159.738C214.907 162.588 214.021 164.966 212.231 166.872C210.458 168.778 208.146 169.988 205.296 170.501V170.899C209.041 171.38 211.891 172.681 213.847 174.802C215.819 176.906 216.797 179.541 216.78 182.707C216.797 185.607 215.96 188.184 214.269 190.438C212.596 192.691 210.284 194.464 207.334 195.757C204.384 197.05 201.003 197.696 197.192 197.696ZM234.69 190.04L234.417 192.774C234.201 194.962 233.787 197.141 233.174 199.312C232.577 201.499 231.948 203.48 231.285 205.253C230.638 207.026 230.116 208.418 229.719 209.429H222.858C223.106 208.451 223.446 207.084 223.877 205.327C224.308 203.587 224.714 201.632 225.095 199.461C225.476 197.29 225.716 195.078 225.816 192.824L225.94 190.04H234.69ZM257.311 188.051V179.575L278.564 146.091H285.873V157.824H281.547L268.149 179.028V179.425H298.351V188.051H257.311ZM281.746 197V185.466L281.945 181.712V146.091H292.037V197H281.746ZM322.625 140.1V203.016H303.012V195.086H312.384V148.005H303.012V140.1H322.625ZM382.769 197V189.244L400.89 172.465C402.432 170.974 403.724 169.631 404.768 168.438C405.829 167.245 406.633 166.077 407.18 164.933C407.726 163.773 408 162.522 408 161.18C408 159.688 407.66 158.404 406.981 157.327C406.301 156.233 405.373 155.396 404.197 154.816C403.02 154.219 401.686 153.921 400.194 153.921C398.637 153.921 397.278 154.236 396.118 154.866C394.958 155.496 394.063 156.399 393.433 157.575C392.803 158.752 392.488 160.152 392.488 161.776H382.272C382.272 158.445 383.026 155.554 384.534 153.101C386.042 150.648 388.155 148.751 390.873 147.408C393.59 146.066 396.723 145.395 400.269 145.395C403.915 145.395 407.088 146.041 409.79 147.334C412.507 148.61 414.62 150.383 416.128 152.653C417.636 154.924 418.39 157.526 418.39 160.459C418.39 162.381 418.009 164.279 417.247 166.151C416.501 168.024 415.167 170.104 413.245 172.391C411.323 174.661 408.613 177.387 405.116 180.569L397.684 187.852V188.2H419.062V197H382.769Z" fill="#006CA9"/>
<path d="M47.3125 236.199C46.2424 236.199 45.3807 235.908 44.7273 235.325C44.0739 234.738 43.643 233.888 43.4347 232.776C43.2263 231.658 43.25 230.309 43.5057 228.727C43.7614 227.155 44.1804 225.813 44.7628 224.7C45.3452 223.583 46.0625 222.731 46.9148 222.143C47.767 221.552 48.7235 221.256 49.7841 221.256C50.8447 221.256 51.7041 221.552 52.3622 222.143C53.0251 222.735 53.4654 223.588 53.6832 224.7C53.9058 225.813 53.8845 227.155 53.6193 228.727C53.3542 230.309 52.9304 231.656 52.348 232.768C51.7656 233.881 51.0483 234.731 50.196 235.318C49.3438 235.905 48.3826 236.199 47.3125 236.199ZM47.5682 234.636C48.6335 234.636 49.545 234.125 50.3026 233.102C51.0649 232.075 51.6023 230.616 51.9148 228.727C52.1231 227.468 52.1657 226.395 52.0426 225.51C51.9195 224.625 51.6449 223.95 51.2188 223.486C50.7926 223.022 50.2292 222.79 49.5284 222.79C48.4773 222.79 47.5729 223.308 46.8153 224.345C46.0578 225.377 45.5227 226.838 45.2102 228.727C45.0019 229.987 44.9569 231.057 45.0753 231.938C45.1937 232.818 45.4635 233.488 45.8849 233.947C46.3063 234.407 46.8674 234.636 47.5682 234.636Z" fill="#737370"/>
<path d="M119.125 221.455L116.71 236H114.949L117.051 223.301H116.966L113.017 225.659L113.33 223.869L117.364 221.455H119.125Z" fill="#737370"/>
<path d="M191.597 236L191.824 234.722L197.477 229.466C198.14 228.85 198.692 228.313 199.132 227.854C199.577 227.394 199.923 226.964 200.169 226.561C200.42 226.159 200.583 225.735 200.659 225.29C200.744 224.778 200.699 224.336 200.524 223.962C200.349 223.588 200.072 223.299 199.693 223.095C199.314 222.892 198.86 222.79 198.33 222.79C197.771 222.79 197.262 222.906 196.803 223.138C196.343 223.365 195.962 223.687 195.659 224.104C195.356 224.516 195.157 224.996 195.062 225.545H193.386C193.528 224.693 193.853 223.945 194.359 223.301C194.871 222.657 195.498 222.155 196.241 221.795C196.99 221.436 197.79 221.256 198.642 221.256C199.494 221.256 200.216 221.436 200.808 221.795C201.4 222.155 201.829 222.641 202.094 223.251C202.359 223.862 202.43 224.542 202.307 225.29C202.212 225.83 202.025 226.353 201.746 226.859C201.466 227.366 201.038 227.932 200.46 228.557C199.887 229.177 199.111 229.935 198.131 230.83L194.295 234.324L194.267 234.438H201.028L200.773 236H191.597Z" fill="#737370"/>
<path d="M284.568 236.199C283.621 236.199 282.8 236.04 282.104 235.723C281.412 235.401 280.896 234.954 280.555 234.381C280.214 233.803 280.094 233.131 280.193 232.364H281.955C281.912 232.828 281.992 233.23 282.196 233.571C282.404 233.912 282.712 234.175 283.119 234.359C283.531 234.544 284.024 234.636 284.597 234.636C285.207 234.636 285.78 234.53 286.315 234.317C286.855 234.104 287.307 233.796 287.672 233.393C288.036 232.986 288.261 232.501 288.347 231.938C288.422 231.431 288.366 230.981 288.176 230.588C287.987 230.195 287.66 229.887 287.196 229.665C286.737 229.437 286.135 229.324 285.392 229.324H284.199L284.455 227.761H285.562C286.14 227.761 286.67 227.652 287.153 227.435C287.636 227.217 288.039 226.911 288.361 226.518C288.683 226.121 288.886 225.654 288.972 225.119C289.052 224.651 289.019 224.243 288.872 223.898C288.73 223.547 288.484 223.275 288.134 223.081C287.788 222.887 287.348 222.79 286.812 222.79C286.301 222.79 285.799 222.882 285.307 223.067C284.819 223.247 284.402 223.509 284.057 223.855C283.711 224.196 283.493 224.608 283.403 225.091H281.699C281.846 224.333 282.175 223.668 282.686 223.095C283.197 222.518 283.82 222.068 284.554 221.746C285.293 221.419 286.074 221.256 286.898 221.256C287.812 221.256 288.564 221.445 289.156 221.824C289.753 222.198 290.179 222.69 290.435 223.301C290.69 223.907 290.761 224.561 290.648 225.261C290.52 226.062 290.191 226.739 289.661 227.293C289.13 227.847 288.484 228.24 287.722 228.472V228.557C288.616 228.713 289.265 229.125 289.668 229.793C290.075 230.455 290.203 231.246 290.051 232.165C289.919 232.989 289.599 233.704 289.092 234.31C288.586 234.911 287.944 235.377 287.168 235.709C286.391 236.036 285.525 236.199 284.568 236.199Z" fill="#737370"/>
<g filter="url(#filter0_d_151_13)">
<path d="M406.471 204.596C415.005 214.716 420.028 226.009 421.222 237.596C422.415 249.18 419.758 260.823 413.409 271.641C407.054 282.468 397.162 292.191 384.445 300.027C371.729 307.862 356.556 313.583 340.09 316.727C323.626 319.871 306.334 320.349 289.557 318.123C272.779 315.898 256.986 311.031 243.397 303.915C229.807 296.799 218.811 287.64 211.219 277.179C203.631 266.723 199.645 255.249 199.504 243.637" stroke="#82D1F5" stroke-width="3"/>
</g>
<g filter="url(#filter1_d_151_13)">
<path d="M303.39 85.5636C303.701 84.7958 303.331 83.9211 302.564 83.6099L290.053 78.5379C289.285 78.2266 288.41 78.5967 288.099 79.3644C287.788 80.1322 288.158 81.0068 288.925 81.3181L300.046 85.8266L295.538 96.9474C295.227 97.7152 295.597 98.5898 296.364 98.9011C297.132 99.2123 298.007 98.8423 298.318 98.0745L303.39 85.5636ZM198.584 130.381L302.584 86.3815L301.416 83.6185L197.416 127.619L198.584 130.381Z" fill="#82D1F5"/>
</g>
<g filter="url(#filter2_d_151_13)">
<path d="M371.622 36.6352C370.869 36.2915 369.979 36.6239 369.635 37.3777L364.034 49.6609C363.69 50.4146 364.023 51.3043 364.777 51.648C365.53 51.9917 366.42 51.6593 366.764 50.9056L371.742 39.9872L382.661 44.966C383.415 45.3097 384.304 44.9773 384.648 44.2235C384.992 43.4697 384.659 42.5801 383.906 42.2363L371.622 36.6352ZM406.405 128.475L372.405 37.475L369.595 38.525L403.595 129.525L406.405 128.475Z" fill="#82D1F5"/>
</g>
<path d="M324.944 87.696C321.232 87.696 317.926 87.058 315.026 85.782C312.142 84.4893 309.863 82.7161 308.19 80.4624C306.532 78.192 305.679 75.5736 305.629 72.6072H316.467C316.534 73.8501 316.94 74.9439 317.685 75.8885C318.448 76.8165 319.459 77.5374 320.718 78.0511C321.978 78.5649 323.394 78.8217 324.969 78.8217C326.609 78.8217 328.059 78.5317 329.319 77.9517C330.578 77.3717 331.564 76.5679 332.277 75.5405C332.99 74.513 333.346 73.3281 333.346 71.9858C333.346 70.6269 332.965 69.4254 332.202 68.3814C331.457 67.3208 330.379 66.4922 328.971 65.8956C327.579 65.299 325.922 65.0007 323.999 65.0007H319.251V57.0959H323.999C325.623 57.0959 327.057 56.8142 328.3 56.2507C329.559 55.6873 330.537 54.9084 331.233 53.9141C331.929 52.9032 332.277 51.7266 332.277 50.3842C332.277 49.1082 331.97 47.9896 331.357 47.0284C330.761 46.0507 329.915 45.2884 328.822 44.7415C327.745 44.1946 326.485 43.9212 325.043 43.9212C323.585 43.9212 322.251 44.1863 321.041 44.7166C319.831 45.2303 318.862 45.9678 318.133 46.929C317.404 47.8901 317.014 49.017 316.964 50.3097H306.648C306.698 47.3764 307.535 44.7912 309.159 42.554C310.783 40.3168 312.971 38.5684 315.722 37.3089C318.489 36.0329 321.613 35.3949 325.093 35.3949C328.606 35.3949 331.68 36.0329 334.315 37.3089C336.95 38.585 338.997 40.3085 340.455 42.4794C341.93 44.6338 342.659 47.0533 342.643 49.7379C342.659 52.5883 341.773 54.9664 339.983 56.8722C338.21 58.7779 335.898 59.9877 333.048 60.5014V60.8991C336.793 61.3797 339.643 62.6806 341.599 64.8018C343.571 66.9065 344.549 69.5414 344.532 72.7067C344.549 75.6068 343.712 78.1837 342.021 80.4375C340.348 82.6913 338.036 84.4645 335.086 85.7571C332.136 87.0497 328.755 87.696 324.944 87.696Z" fill="#FA8F00"/>
<path d="M347.063 34V30.1222L356.124 21.7326C356.895 20.9869 357.541 20.3157 358.063 19.7191C358.593 19.1225 358.995 18.5384 359.268 17.9666C359.542 17.3866 359.679 16.761 359.679 16.0898C359.679 15.3441 359.509 14.7019 359.169 14.1634C358.829 13.6165 358.365 13.198 357.777 12.908C357.189 12.6097 356.522 12.4606 355.776 12.4606C354.997 12.4606 354.318 12.618 353.738 12.9329C353.158 13.2478 352.71 13.6993 352.395 14.2876C352.08 14.8759 351.923 15.5761 351.923 16.3881H346.815C346.815 14.7227 347.192 13.2768 347.946 12.0504C348.7 10.8241 349.756 9.87535 351.115 9.20419C352.474 8.53302 354.04 8.19744 355.813 8.19744C357.636 8.19744 359.223 8.5206 360.574 9.1669C361.932 9.80492 362.989 10.6915 363.743 11.8267C364.497 12.9619 364.874 14.2628 364.874 15.7294C364.874 16.6906 364.683 17.6393 364.302 18.5756C363.929 19.512 363.262 20.5518 362.301 21.6953C361.34 22.8305 359.985 24.1935 358.237 25.7844L354.521 29.4261V29.6001H365.21V34H347.063Z" fill="#FA8F00"/>
<defs>
<filter id="filter0_d_151_13" x="184.574" y="203.096" width="242.426" height="125.904" filterUnits="userSpaceOnUse" color-interpolation-filters="sRGB">
<feFlood flood-opacity="0" result="BackgroundImageFix"/>
<feColorMatrix in="SourceAlpha" type="matrix" values="0 0 0 0 0 0 0 0 0 0 0 0 0 0 0 0 0 0 127 0" result="hardAlpha"/>
<feOffset dy="4"/>
<feGaussianBlur stdDeviation="2"/>
<feComposite in2="hardAlpha" operator="out"/>
<feColorMatrix type="matrix" values="0 0 0 0 0 0 0 0 0 0 0 0 0 0 0 0 0 0 0.25 0"/>
<feBlend mode="normal" in2="BackgroundImageFix" result="effect1_dropShadow_151_13"/>
<feBlend mode="normal" in="SourceGraphic" in2="effect1_dropShadow_151_13" result="shape"/>
</filter>
<filter id="filter1_d_151_13" x="193.416" y="78.4276" width="114.085" height="59.9537" filterUnits="userSpaceOnUse" color-interpolation-filters="sRGB">
<feFlood flood-opacity="0" result="BackgroundImageFix"/>
<feColorMatrix in="SourceAlpha" type="matrix" values="0 0 0 0 0 0 0 0 0 0 0 0 0 0 0 0 0 0 127 0" result="hardAlpha"/>
<feOffset dy="4"/>
<feGaussianBlur stdDeviation="2"/>
<feComposite in2="hardAlpha" operator="out"/>
<feColorMatrix type="matrix" values="0 0 0 0 0 0 0 0 0 0 0 0 0 0 0 0 0 0 0.25 0"/>
<feBlend mode="normal" in2="BackgroundImageFix" result="effect1_dropShadow_151_13"/>
<feBlend mode="normal" in="SourceGraphic" in2="effect1_dropShadow_151_13" result="shape"/>
</filter>
<filter id="filter2_d_151_13" x="359.898" y="36.4996" width="50.5066" height="101.025" filterUnits="userSpaceOnUse" color-interpolation-filters="sRGB">
<feFlood flood-opacity="0" result="BackgroundImageFix"/>
<feColorMatrix in="SourceAlpha" type="matrix" values="0 0 0 0 0 0 0 0 0 0 0 0 0 0 0 0 0 0 127 0" result="hardAlpha"/>
<feOffset dy="4"/>
<feGaussianBlur stdDeviation="2"/>
<feComposite in2="hardAlpha" operator="out"/>
<feColorMatrix type="matrix" values="0 0 0 0 0 0 0 0 0 0 0 0 0 0 0 0 0 0 0.25 0"/>
<feBlend mode="normal" in2="BackgroundImageFix" result="effect1_dropShadow_151_13"/>
<feBlend mode="normal" in="SourceGraphic" in2="effect1_dropShadow_151_13" result="shape"/>
</filter>
</defs>
</svg>
